<svg xmlns="http://www.w3.org/2000/svg" viewBox="0 0 75 54"><path d="M68.4 2.8c.1.7.1.7-.5.8-2.8.4-4.8 1.9-6.4 4.2-1.2 1.8-2.1 3.7-2.9 5.8-1.6 3.7-3.1 7.5-4.7 11.3-.1.1-.1.3-.2.5h.7c3.4-.1 6.7.2 9.9 1.1 2.7.7 5.2 1.8 7.3 3.7 2.1 1.9 3.2 4.3 3.3 7.1.3 5.3-1.9 9.4-6 12.6-2.6 2-5.5 3.3-8.6 4.1-.2-.4-.2-.4.3-.5 2.5-.8 4.8-1.7 7-3.2 2.8-1.8 5-4.2 6.2-7.5.9-2.6 1.1-5.1.4-7.7-.9-3-2.9-5.1-5.7-6.6-2-1.1-4.2-1.7-6.4-2.1-2.7-.5-5.3-.6-8-.5-.4 0-.6.2-.7.5-3.7 8.9-7.4 17.9-11 26.7-.2.4-.4.6-.9.6-1.1-.1-.8.2-1.2-.9-3.2-8.3-6.3-16.8-9.5-25.2-.2-.6-.2-.6-.9-.6h-7.6c-1.2 0-2.4-.1-3.6-.1-3.7-.2-7.3-.6-10.7-2.2-3-1.4-5.4-3.4-6.9-6.4C-1 13.9-.1 8.6 3.3 4.9 5.6 2.3 8.6.9 12 .3c6.3-1.1 11.5 1 16.1 5.2 2.1 2 3.5 4.3 4.9 6.8 1.7 3.1 2.9 6.5 4 9.8l1.3 3.8c.1.3.3.4.6.4 3.1-.2 6.2-.3 9.3-.5l3.5-.3c.2 0 .4-.2.5-.3 1.6-4.1 3.5-8.1 4.8-12.3.4-1.2.6-2.6.6-3.9-.1-1-.3-2.1-.7-3-.8-1.6-2.2-2.2-3.8-2.4-.2 0-.5-.1-.7-.1-.3 0-.3-.2-.4-.4 0-.3.2-.3.4-.3h16zm-38 23.6c-.1-.2-.1-.3-.1-.4-1.8-4.8-3.6-9.7-5.4-14.5-.9-2.3-1.8-4.6-3.2-6.6-1.1-1.6-2.3-2.9-4.1-3.6-1.8-.9-3.8-.8-5.8-.4C4.3 2.4 1.4 9.3 2.1 15c.4 2.7 1.7 4.8 3.6 6.6 2.5 2.2 5.5 3.5 8.7 4.1 2.6.5 5.3.6 7.9.7 2.5.1 5 0 7.5 0h.6zm14.1 17.3h.2c2.4-5.9 4.8-11.8 7.2-17.9-4.5.3-8.9.5-13.3.8 2 5.8 3.9 11.4 5.9 17.1z" fill="#010202"/></svg>