<svg version="1" xmlns="http://www.w3.org/2000/svg" width="1853.333" height="1853.333" viewBox="0 0 1390.000000 1390.000000"><path d="M333.3 296.5c-57.3 7.3-102.8 28-137.1 62.5-16.2 16.3-27.7 32-37.3 51.3-27.8 55.3-25.8 119.9 5.1 170.2 10.4 16.9 27.3 36.1 43 48.8 24.5 19.8 59 37.3 93.2 47.2 47.9 14 103.3 18.5 227.4 18.5 48.9 0 63.4.3 64.6 1.2 1.8 1.4.9-1.1 65.3 170.9 49.6 132.1 80.6 214.4 83 219.6 1.4 3.2 1.7 3.3 7.7 3.5 12.1.3 15-.6 18.4-5.6.8-1.4 11-25.6 22.6-53.8 30.6-74.9 96.2-234.1 121.6-295.3 17.4-41.9 22.6-53.4 24.7-55 5.3-4 62.5-3.1 99.2 1.5 98.2 12.5 165.5 49.7 194.5 107.5 29.2 58 18.7 136.6-26.1 195-27.3 35.6-72.4 67.8-124.1 88.4-14.4 5.7-34.2 12.6-41.5 14.5-5.1 1.3-6.6 3.4-4.6 6.5.7 1.1 3.2.7 13.7-2.4 76.8-22.3 140.7-67.4 175-123.5 12.1-19.8 21.3-44.4 25.7-68.5 3-16.3 3.2-60.8.4-75-8.5-43.1-31.8-75.6-74.2-103.5-13.9-9.1-38.4-20.4-58-26.9-50-16.4-94.3-23.1-153.2-23.1h-26.2l.9-2.8c.5-1.5 2.5-6.5 4.5-11.2 2-4.7 13.1-31.5 24.7-59.5 11.5-28.1 25.7-62.3 31.5-76 5.8-13.8 13-31.1 16-38.5 7.1-17.5 20.4-44.7 28.5-58.2 10.6-17.4 17.6-26.6 29.8-38.8 20.7-20.9 39.5-31 68.5-36.9l13-2.6.3-5.3.3-5.2-121.3.2-121.3.3-.3 3c-.5 5.2 1.3 6.3 12.8 8 25.9 3.8 41.4 11.2 51.8 24.7 13.6 17.7 20 49 16.1 79.8-3.4 28.1-16.7 66.2-54.4 157-7.9 19-16.6 40.1-19.3 47-3.4 8.3-5.9 13.1-7.5 14.4-1.9 1.4-5.8 2.2-16.9 3.1-32.5 3-57.9 4.6-105.3 7-83.4 4.2-75.7 4-78.2 1.9-1.5-1.4-6.8-15.5-18.2-49-33.2-97.6-45.6-126.9-73.7-175-26.4-45.2-50.2-74.1-81.4-99-43.1-34.3-82.7-52.9-130.7-61.5-15.4-2.8-55.9-3.5-73-1.4zm48.2 10.5c11.4 2.9 29.1 10.9 39.2 17.6 20.9 13.9 42.4 41.2 60.2 76.4 14.4 28.4 15.4 31 80.7 206 23.4 62.8 28.8 77.9 28.1 78.6-.2.2-26.9.4-59.3.5-113.4.2-168.3-5.1-216.5-21-43.9-14.6-81.2-38.4-105.7-67.5-29.3-35-42-74.5-38.3-119.9C176 402.5 217.3 343.2 281 318c33.3-13.2 74.5-17.7 100.5-11zm526 372.7c-1.2 5-101.5 254.7-104.6 260.5-2.9 5.4-.2 12.5-61.8-166.7-15.9-46.2-28.7-84.2-28.6-84.3.5-.5 32-2.5 104.5-6.7 34.4-1.9 67.7-3.9 74-4.4 18.9-1.3 17.3-1.5 16.5 1.6z"/></svg>