<?xml version="1.0" encoding="UTF-8" standalone="no"?>
<svg width="99px" height="86px" viewBox="0 0 99 86" version="1.1" xmlns="http://www.w3.org/2000/svg" xmlns:xlink="http://www.w3.org/1999/xlink">
    <!-- Generator: Sketch 47.1 (45422) - http://www.bohemiancoding.com/sketch -->
    <title>-•Victoria-logovvii</title>
    <desc>Created with Sketch.</desc>
    <defs></defs>
    <g id="Design-V2" stroke="none" stroke-width="1" fill="none" fill-rule="evenodd">
        <g id="Homepage-3.1" transform="translate(-671.000000, -20.000000)">
            <g id="LOGO" transform="translate(671.000000, 20.000000)">
                <g id="-•Victoria-logovvii">
                    <g id="Group" transform="translate(0.000000, 60.000000)" fill-rule="nonzero" fill="#010202">
                        <polygon id="Shape" points="1.84945055 0.717241379 5.82032967 11.5862069 9.79120879 0.717241379 11.5318681 0.717241379 5.82032967 15.8344828 0.108791209 0.717241379 1.84945055 0.717241379"></polygon>
                        <polygon id="Shape" points="17.1346154 0.717241379 17.1346154 15.0068966 15.5571429 15.0068966 15.5571429 0.717241379 17.1346154 0.717241379"></polygon>
                        <path d="M33.6164835,3.86206897 C33.1813187,3.42068966 32.4741758,2.86896552 31.767033,2.53793103 C31.0054945,2.20689655 30.1895604,1.9862069 29.3192308,1.9862069 C26.0554945,1.9862069 23.6620879,4.63448276 23.6620879,7.94482759 C23.6620879,11.8068966 26.7626374,13.737931 29.3192308,13.737931 C30.243956,13.737931 31.2230769,13.462069 31.9302198,13.0758621 C32.7461538,12.6896552 33.2901099,12.137931 33.5620879,11.862069 L33.5620879,13.8482759 C31.9846154,15.0068966 30.3527473,15.2275862 29.3192308,15.2275862 C25.1307692,15.2275862 22.0302198,12.0275862 22.0302198,7.88965517 C22.0302198,3.64137931 25.1851648,0.44137931 29.3736264,0.44137931 C30.243956,0.44137931 31.8214286,0.551724138 33.5076923,1.87586207 L33.5076923,3.86206897 L33.6164835,3.86206897 Z" id="Shape"></path>
                        <polygon id="Shape" points="42.1021978 2.20689655 42.1021978 14.9517241 40.5247253 14.9517241 40.5247253 2.20689655 37.0978022 2.20689655 37.0978022 0.717241379 45.4747253 0.717241379 45.4747253 2.20689655"></polygon>
                        <path d="M48.1945055,7.83448276 C48.1945055,3.5862069 51.4582418,0.44137931 55.5379121,0.44137931 C59.5631868,0.44137931 62.8813187,3.5862069 62.8813187,7.83448276 C62.8813187,12.0827586 59.6175824,15.2275862 55.5379121,15.2275862 C51.4582418,15.2275862 48.1945055,12.0827586 48.1945055,7.83448276 Z M49.8263736,7.83448276 C49.8263736,11.0896552 52.382967,13.737931 55.5379121,13.737931 C58.6928571,13.737931 61.2494505,11.1448276 61.2494505,7.83448276 C61.2494505,4.52413793 58.6928571,1.93103448 55.5379121,1.93103448 C52.382967,1.93103448 49.8263736,4.57931034 49.8263736,7.83448276 Z" id="Shape"></path>
                        <path d="M70.0615385,0.717241379 C70.9862637,0.717241379 72.4005495,0.772413793 73.4884615,1.48965517 C74.3043956,2.04137931 75.0115385,3.14482759 75.0115385,4.63448276 C75.0115385,6.84137931 73.5972527,8.44137931 71.4758242,8.55172414 L75.9362637,14.9517241 L74.0324176,14.9517241 L69.7351648,8.71724138 L69.3543956,8.71724138 L69.3543956,14.9517241 L67.7769231,14.9517241 L67.7769231,0.662068966 L70.0615385,0.662068966 L70.0615385,0.717241379 Z M69.4087912,7.28275862 L70.3879121,7.28275862 C72.3461538,7.28275862 73.4884615,6.34482759 73.4884615,4.68965517 C73.4884615,3.91724138 73.2708791,3.08965517 72.3461538,2.59310345 C71.6934066,2.20689655 70.9862637,2.20689655 70.3335165,2.20689655 L69.4087912,2.20689655 L69.4087912,7.28275862 L69.4087912,7.28275862 Z" id="Shape"></path>
                        <polygon id="Shape" points="82.082967 0.717241379 82.082967 15.0068966 80.5054945 15.0068966 80.5054945 0.717241379 82.082967 0.717241379"></polygon>
                        <path d="M95.5730769,10.9241379 L89.5895604,10.9241379 L87.9032967,14.9517241 L86.1626374,14.9517241 L92.6357143,2.84217094e-14 L98.9456044,14.9517241 L97.2049451,14.9517241 L95.5730769,10.9241379 Z M94.9747253,9.43448276 L92.6357143,3.69655172 L90.2423077,9.43448276 L94.9747253,9.43448276 Z" id="Shape"></path>
                    </g>
                    <g id="Group" transform="translate(40.000000, 77.000000)" fill-rule="nonzero" fill="#010202">
                        <path d="M0.819444444,3.05 L1.20185185,3.05 L1.14722222,3.5 C1.25648148,3.3 1.42037037,3.2 1.52962963,3.1 C1.74814815,3 1.96666667,2.95 2.18518519,2.95 C2.45833333,2.95 2.73148148,3 2.89537037,3.15 C3.00462963,3.25 3.16851852,3.4 3.22314815,3.6 C3.27777778,3.45 3.38703704,3.3 3.66018519,3.15 C3.8787037,3 4.09722222,2.95 4.425,2.95 C4.9712963,2.95 5.18981481,3.15 5.29907407,3.25 C5.51759259,3.45 5.57222222,3.7 5.57222222,3.95 C5.57222222,4 5.57222222,4.2 5.51759259,4.55 L5.24444444,6.7 L4.91666667,6.7 L5.18981481,4.6 C5.18981481,4.55 5.24444444,4.2 5.24444444,4.1 C5.24444444,3.85 5.13518519,3.65 5.02592593,3.55 C4.86203704,3.35 4.58888889,3.35 4.425,3.35 C4.20648148,3.35 3.93333333,3.4 3.71481481,3.6 C3.44166667,3.85 3.33240741,4.25 3.27777778,4.65 L3.00462963,6.75 L2.62222222,6.75 L2.89537037,4.65 C2.89537037,4.5 2.95,4.25 2.95,4.15 C2.95,3.95 2.95,3.75 2.73148148,3.6 C2.62222222,3.5 2.4037037,3.4 2.13055556,3.4 C1.80277778,3.4 1.58425926,3.5 1.42037037,3.65 C1.20185185,3.9 1.03796296,4.25 0.983333333,4.75 L0.710185185,6.8 L0.327777778,6.8 L0.819444444,3.05 Z" id="Shape"></path>
                        <path d="M10.4342593,3.05 L10.8166667,3.05 L10.325,6.7 L9.94259259,6.7 L9.99722222,6.15 C9.83333333,6.35 9.66944444,6.5 9.3962963,6.6 C9.12314815,6.7 8.85,6.8 8.46759259,6.8 C8.03055556,6.8 7.59351852,6.7 7.21111111,6.4 C6.99259259,6.2 6.61018519,5.8 6.61018519,5.1 C6.61018519,4.5 6.8287037,3.9 7.26574074,3.5 C7.53888889,3.25 8.03055556,3 8.74074074,3 C9.06851852,3 9.3962963,3.05 9.72407407,3.25 C9.94259259,3.4 10.1611111,3.6 10.2703704,3.8 L10.4342593,3.05 Z M7.64814815,3.7 C7.32037037,4 7.10185185,4.5 7.10185185,5 C7.10185185,5.45 7.32037037,5.85 7.53888889,6.1 C7.86666667,6.4 8.24907407,6.45 8.57685185,6.45 C8.95925926,6.45 9.23240741,6.35 9.50555556,6.2 C10.1064815,5.8 10.2157407,5.15 10.2157407,4.75 C10.2157407,4.3 10.0518519,3.95 9.7787037,3.7 C9.61481481,3.55 9.28703704,3.35 8.68611111,3.35 C8.35833333,3.3 7.97592593,3.45 7.64814815,3.7 Z" id="Shape"></path>
                        <polygon id="Shape" points="13.0564815 0.2 12.4555556 4.65 14.312963 3.1 14.8046296 3.1 12.8925926 4.7 14.8046296 6.75 14.312963 6.75 12.6194444 4.95 12.4009259 5.15 12.1824074 6.75 11.8 6.75 12.6740741 0.25 13.0564815 0.25"></polygon>
                        <path d="M15.7333333,4.95 C15.6240741,5.4 15.8425926,5.9 16.1157407,6.15 C16.2796296,6.3 16.6074074,6.5 17.0990741,6.5 C17.4268519,6.5 17.7546296,6.4 18.0277778,6.25 C18.2462963,6.1 18.4648148,5.9 18.5194444,5.7 L18.8472222,5.9 C18.6833333,6.15 18.4101852,6.45 18.137037,6.6 C17.9185185,6.7 17.5907407,6.85 17.0990741,6.85 C16.6074074,6.85 16.1157407,6.7 15.787963,6.35 C15.4601852,6 15.2962963,5.6 15.2962963,5.1 C15.2962963,4.4 15.5694444,3.9 15.9518519,3.55 C16.2796296,3.25 16.7166667,3 17.3722222,3 C17.9185185,3 18.3555556,3.15 18.6287037,3.4 C19.0657407,3.8 19.175,4.35 19.1203704,4.95 L15.7333333,4.95 L15.7333333,4.95 Z M18.737963,4.6 C18.737963,4.2 18.5740741,3.9 18.3555556,3.65 C18.1916667,3.45 17.8638889,3.3 17.4268519,3.3 C16.8259259,3.3 16.4981481,3.55 16.2796296,3.75 C16.0611111,3.95 15.8972222,4.2 15.8425926,4.6 L18.737963,4.6 Z" id="Shape"></path>
                        <path d="M22.2342593,3.75 C22.1796296,3.65 22.125,3.55 22.0157407,3.45 C21.9611111,3.45 21.8518519,3.35 21.5787037,3.35 C21.3055556,3.35 21.1416667,3.45 21.0324074,3.55 C20.9231481,3.65 20.8685185,3.8 20.8685185,3.95 C20.8685185,4.05 20.9231481,4.2 21.0324074,4.3 C21.087037,4.35 21.1962963,4.4 21.4694444,4.5 L21.7972222,4.6 C22.1796296,4.75 22.3435185,4.85 22.3981481,4.9 C22.6166667,5.1 22.6712963,5.35 22.6712963,5.55 C22.6712963,6 22.4527778,6.25 22.3435185,6.4 C22.125,6.6 21.7972222,6.8 21.2509259,6.8 C21.0324074,6.8 20.65,6.75 20.3222222,6.5 C20.1583333,6.35 19.9944444,6.1 19.9944444,5.85 L20.3768519,5.75 C20.3768519,5.8 20.4314815,6.05 20.65,6.25 C20.7592593,6.35 20.9777778,6.45 21.2509259,6.45 C21.5240741,6.45 21.7972222,6.35 21.9611111,6.2 C22.125,6.05 22.2342593,5.8 22.2342593,5.6 C22.2342593,5.45 22.1796296,5.3 22.0703704,5.15 C22.0157407,5.1 21.9064815,5 21.5787037,4.9 L21.3601852,4.8 C21.1416667,4.7 20.9231481,4.6 20.7592593,4.45 C20.5953704,4.3 20.5407407,4.15 20.5407407,3.9 C20.5407407,3.6 20.65,3.4 20.8138889,3.25 C21.087037,3 21.3601852,2.95 21.687963,2.95 C21.9064815,2.95 22.125,3 22.3435185,3.1 C22.4527778,3.2 22.6166667,3.3 22.6712963,3.55 L22.2342593,3.75 Z" id="Shape"></path>
                        <polygon id="Shape" points="26.9324074 6.75 25.512037 3.05 25.9490741 3.05 27.2055556 6.3 29.062963 3.05 29.5546296 3.05 26.1675926 8.75 25.7305556 8.75"></polygon>
                        <path d="M33.5425926,3.5 C33.8157407,3.75 34.0342593,4.15 34.0342593,4.75 C34.0342593,5.45 33.7611111,5.95 33.3787037,6.25 C33.0509259,6.55 32.5592593,6.8 31.7398148,6.8 C31.1935185,6.8 30.7018519,6.65 30.3194444,6.3 C29.9916667,6 29.7731481,5.55 29.7731481,5.05 C29.7731481,4.5 30.0462963,3.9 30.4287037,3.55 C30.8657407,3.2 31.4666667,3 32.012963,3 C32.5592593,3 33.2148148,3.15 33.5425926,3.5 Z M33.0509259,6.05 C33.3240741,5.8 33.6518519,5.4 33.6518519,4.8 C33.6518519,4.2 33.3240741,3.85 33.2148148,3.75 C32.9962963,3.5 32.5592593,3.3 32.012963,3.3 C31.5212963,3.3 31.0842593,3.45 30.8111111,3.7 C30.4287037,4 30.2101852,4.5 30.2101852,4.95 C30.2101852,5.4 30.3740741,5.75 30.6472222,6.05 C30.8657407,6.25 31.1935185,6.45 31.7944444,6.45 C32.3407407,6.45 32.7231481,6.35 33.0509259,6.05 Z" id="Shape"></path>
                        <path d="M35.837037,3.05 L35.5638889,5.25 C35.5092593,5.65 35.5638889,6.05 35.7824074,6.25 C35.9462963,6.4 36.2194444,6.45 36.4925926,6.45 C36.8203704,6.45 37.1481481,6.35 37.312037,6.15 C37.4212963,6.05 37.5851852,5.75 37.6398148,5.25 L37.912963,3.05 L38.2953704,3.05 L37.9675926,5.35 C37.912963,5.75 37.8583333,6.1 37.5851852,6.4 C37.2574074,6.75 36.7657407,6.8 36.437963,6.8 C36.1101852,6.8 35.7277778,6.75 35.4546296,6.45 C35.0722222,6.05 35.1268519,5.55 35.1268519,5.25 L35.4,3.05 L35.837037,3.05 Z" id="Shape"></path>
                        <path d="M43.6490741,3.75 C43.5944444,3.65 43.5398148,3.55 43.4305556,3.45 C43.3759259,3.45 43.2666667,3.35 42.9935185,3.35 C42.7203704,3.35 42.5564815,3.45 42.4472222,3.55 C42.337963,3.65 42.2833333,3.8 42.2833333,3.95 C42.2833333,4.05 42.337963,4.2 42.4472222,4.3 C42.5018519,4.35 42.6111111,4.4 42.8842593,4.5 L43.212037,4.6 C43.5944444,4.75 43.7583333,4.85 43.812963,4.9 C44.0314815,5.1 44.0861111,5.35 44.0861111,5.55 C44.0861111,6 43.8675926,6.25 43.7583333,6.4 C43.5398148,6.6 43.212037,6.8 42.6657407,6.8 C42.4472222,6.8 42.0648148,6.75 41.737037,6.5 C41.5731481,6.35 41.4092593,6.1 41.4092593,5.85 L41.7916667,5.75 C41.7916667,5.8 41.8462963,6.05 42.0648148,6.25 C42.1740741,6.35 42.3925926,6.45 42.6657407,6.45 C42.9388889,6.45 43.212037,6.35 43.3759259,6.2 C43.5398148,6.05 43.6490741,5.8 43.6490741,5.6 C43.6490741,5.45 43.5944444,5.3 43.4851852,5.15 C43.4305556,5.1 43.3212963,5 42.9935185,4.9 L42.775,4.8 C42.5564815,4.7 42.337963,4.6 42.1740741,4.45 C42.0101852,4.3 41.9555556,4.15 41.9555556,3.9 C41.9555556,3.6 42.0648148,3.4 42.2287037,3.25 C42.5018519,3 42.775,2.95 43.1027778,2.95 C43.3212963,2.95 43.5398148,3 43.7583333,3.1 C43.8675926,3.2 44.0314815,3.3 44.0861111,3.55 L43.6490741,3.75 Z" id="Shape"></path>
                        <path d="M45.8342593,0.2 L46.2166667,0.2 L45.725,3.65 C45.8342593,3.45 45.9981481,3.3 46.162037,3.2 C46.3805556,3.05 46.6537037,3 46.9814815,3 C47.3638889,3 47.637037,3.1 47.8555556,3.3 C48.237963,3.65 48.1833333,4.15 48.1833333,4.45 L47.8555556,6.75 L47.4731481,6.75 L47.8009259,4.45 C47.8555556,4.15 47.8555556,3.8 47.5824074,3.55 C47.4731481,3.45 47.2546296,3.35 46.9268519,3.35 C46.4898148,3.35 46.2712963,3.5 46.1074074,3.65 C45.9435185,3.8 45.6703704,4.15 45.6157407,4.85 L45.3425926,6.75 L44.9601852,6.75 L45.8342593,0.2 Z" id="Shape"></path>
                        <path d="M49.8768519,3.05 L49.3851852,6.7 L49.0027778,6.7 L49.4944444,3.05 L49.8768519,3.05 Z M49.5490741,2.1 C49.4944444,2.05 49.4944444,2 49.4944444,1.9 C49.4944444,1.75 49.5490741,1.7 49.6037037,1.6 C49.712963,1.5 49.8222222,1.5 49.8768519,1.5 C49.9861111,1.5 50.0407407,1.55 50.0953704,1.6 C50.15,1.65 50.2046296,1.75 50.2046296,1.8 C50.2046296,1.9 50.15,2 50.0953704,2.05 C50.0407407,2.1 49.9314815,2.15 49.8222222,2.15 C49.6583333,2.2 49.6037037,2.1 49.5490741,2.1 Z" id="Shape"></path>
                        <path d="M51.2972222,3.05 L51.6796296,3.05 L51.625,3.6 C51.7888889,3.35 51.9527778,3.2 52.062037,3.15 C52.2805556,3 52.5537037,2.95 52.8268519,2.95 C53.2638889,2.95 53.5916667,3.1 53.7009259,3.25 C53.8648148,3.4 54.0287037,3.6 54.0287037,3.95 C54.0287037,4.15 53.9740741,4.5 53.9740741,4.6 L53.7009259,6.65 L53.3185185,6.65 L53.5916667,4.5 C53.6462963,4.25 53.6462963,4.1 53.6462963,4 C53.6462963,3.85 53.5916667,3.6 53.4277778,3.45 C53.3185185,3.35 53.1,3.25 52.7722222,3.25 C52.4990741,3.25 52.1712963,3.3 51.9527778,3.55 C51.6796296,3.8 51.5157407,4.2 51.4611111,4.75 L51.187963,6.65 L50.8055556,6.65 L51.2972222,3.05 Z" id="Shape"></path>
                        <path d="M55.5037037,4.95 C55.3944444,5.4 55.612963,5.9 55.8861111,6.15 C56.05,6.3 56.3777778,6.5 56.8694444,6.5 C57.1972222,6.5 57.525,6.4 57.7981481,6.25 C58.0166667,6.1 58.2351852,5.9 58.2898148,5.7 L58.6175926,5.9 C58.4537037,6.15 58.1805556,6.45 57.9074074,6.6 C57.6888889,6.7 57.3611111,6.85 56.8694444,6.85 C56.3777778,6.85 55.8861111,6.7 55.5583333,6.35 C55.2305556,6 55.0666667,5.6 55.0666667,5.1 C55.0666667,4.4 55.3398148,3.9 55.7222222,3.55 C56.05,3.25 56.487037,3 57.1425926,3 C57.6888889,3 58.1259259,3.15 58.3990741,3.4 C58.8361111,3.8 58.9453704,4.35 58.8907407,4.95 L55.5037037,4.95 L55.5037037,4.95 Z M58.5083333,4.6 C58.5083333,4.2 58.3444444,3.9 58.1259259,3.65 C57.962037,3.45 57.6342593,3.3 57.1972222,3.3 C56.5962963,3.3 56.2685185,3.55 56.05,3.75 C55.8314815,3.95 55.6675926,4.2 55.612963,4.6 L58.5083333,4.6 Z" id="Shape"></path>
                    </g>
                    <path d="M75.4239841,2.78166465 C75.5323042,3.4870019 75.5323042,3.4870019 74.8823837,3.59551532 C72.0660616,3.9753123 70.0621401,5.49450021 68.4914989,7.82753879 C67.299978,9.61801026 66.4334174,11.5712519 65.6210167,13.5787502 C64.0503756,17.3224632 62.4797344,21.0661763 60.9090932,24.8641461 C60.8549332,24.9726595 60.8007731,25.1354297 60.7466131,25.3524565 C61.0174133,25.3524565 61.2340534,25.3524565 61.4506936,25.3524565 C64.8086161,25.2981998 68.1123786,25.5694833 71.3619811,26.4375907 C74.0699831,27.142928 76.561345,28.2280622 78.6735865,30.1813038 C80.7316681,32.0802887 81.869029,34.467584 81.977349,37.288933 C82.2481492,42.5518339 80.0817476,46.7296007 75.9655845,49.87649 C73.3659026,51.8839883 70.4412604,53.1318926 67.354138,54 C67.1916579,53.5659463 67.1916579,53.5659463 67.6249382,53.4574329 C70.1163001,52.6978389 72.4451819,51.7212181 74.6115835,50.2562869 C77.4279056,48.4115587 79.6484673,46.0242635 80.7858281,42.7688608 C81.7065488,40.2187954 81.869029,37.6687299 81.1649484,35.0644078 C80.2983878,32.026032 78.2403062,29.964277 75.4781441,28.4993457 C73.4742226,27.4142115 71.307821,26.8173877 69.0872593,26.383334 C66.4334174,25.8950236 63.7795754,25.7865102 61.0715733,25.8407669 C60.638293,25.8407669 60.4758129,26.003537 60.3674928,26.383334 C56.68461,35.2814346 53.0017273,44.233792 49.3188445,53.1318926 C49.1563644,53.5659463 48.9397242,53.7287164 48.4522838,53.7287164 C47.369083,53.6744597 47.6398832,53.8914866 47.2066029,52.8606091 C44.0653205,44.4508188 40.9781982,35.9867719 37.8369159,27.5769817 C37.6202757,26.9801578 37.6202757,26.9801578 36.9161952,26.9801578 C34.3706733,26.9801578 31.8251514,26.9801578 29.2796294,26.9801578 C28.0881085,26.9801578 26.8424276,26.9259011 25.6509067,26.8716444 C22.022184,26.6546176 18.3934613,26.2748206 15.0355387,24.701376 C12.0567365,23.3449582 9.61953467,21.3374599 8.15721357,18.299084 C6.04497198,13.8500337 6.85737259,8.64138946 10.3236152,4.89767639 C12.6524969,2.34761096 15.5771391,0.882679762 18.9892217,0.285855939 C25.2717864,-0.799278284 30.5253104,1.26247674 35.1289138,5.49450021 C37.1869954,7.44774181 38.6493165,9.83503711 40.0033175,12.2765891 C41.7364388,15.4234784 42.8737997,18.7873944 44.0111605,22.0970538 C44.4444408,23.3449582 44.8777212,24.6471193 45.3110015,25.8950236 C45.4193216,26.2205639 45.5818017,26.3290773 45.9067619,26.2748206 C48.9938843,26.1120505 52.1351666,25.9492803 55.2222889,25.7322535 C56.4138098,25.6779968 57.5511707,25.5694833 58.7426916,25.4609699 C58.9051717,25.4609699 59.1759719,25.2981998 59.2301319,25.1896864 C60.8549332,21.120433 62.6963745,17.1054364 63.9962155,12.9276696 C64.3753358,11.6797653 64.646136,10.3776042 64.591976,9.02118644 C64.5378159,7.99030893 64.3211758,6.95943141 63.8878954,6.03706732 C63.1296549,4.4636227 61.7214938,3.81254217 60.0966926,3.64977203 C59.8800524,3.64977203 59.6092522,3.59551532 59.3926121,3.59551532 C59.0676518,3.59551532 59.0676518,3.37848848 59.0134918,3.16146163 C59.0134918,2.83592136 59.1759719,2.83592136 59.3926121,2.83592136 C64.7002961,2.83592136 69.95382,2.83592136 75.261504,2.83592136 C75.261504,2.78166465 75.315664,2.78166465 75.4239841,2.78166465 Z M37.4036355,26.4375907 C37.3494755,26.2748206 37.3494755,26.1120505 37.2953155,26.003537 C35.5080341,21.1746897 33.7207528,16.3458424 31.9334714,11.5169952 C31.0669108,9.23821328 30.09203,6.95943141 28.683869,4.89767639 C27.6006682,3.32423176 26.3549872,2.0220707 24.6218659,1.26247674 C22.7804246,0.394369362 20.776503,0.448626073 18.8267416,0.828423051 C11.2984959,2.40186768 8.37385373,9.29246999 9.1320943,15.0436814 C9.51121459,17.7022602 10.8110556,19.8725287 12.760817,21.6087434 C15.2521789,23.8332686 18.2309811,25.0811729 21.4264235,25.7322535 C24.0261055,26.2748206 26.6799475,26.3290773 29.3337895,26.383334 C31.8251514,26.4375907 34.3706733,26.383334 36.8620351,26.383334 C37.0245153,26.4375907 37.1869954,26.4375907 37.4036355,26.4375907 Z M51.5394062,43.6912249 C51.5935662,43.6912249 51.6477262,43.6912249 51.7018863,43.6912249 C54.0849281,37.7772434 56.5221299,31.8632618 58.9051717,25.8407669 C54.4098883,26.1120505 50.022925,26.383334 45.6359617,26.6546176 C47.5857232,32.405829 49.5354847,38.0485269 51.5394062,43.6912249 Z" id="Shape" fill="#010202" fill-rule="nonzero"></path>
                    <path d="M6,81 L38,81" id="Shape" stroke="#000000" stroke-width="0.5"></path>
                </g>
            </g>
        </g>
    </g>
</svg>