<svg width="99" height="86" xmlns="http://www.w3.org/2000/svg"><g fill="#fff" fill-rule="evenodd"><g fill-rule="nonzero"><path d="M1.85 60.72l3.97 10.87 3.97-10.87h1.74L5.82 75.83.11 60.72h1.74zM17.13 60.72v14.29h-1.57V60.72h1.57zM33.62 63.86a6.12 6.12 0 00-4.3-1.88c-3.26 0-5.66 2.65-5.66 5.96a5.65 5.65 0 008.27 5.14c.82-.39 1.36-.94 1.63-1.22v1.99a7.13 7.13 0 01-4.24 1.38 7.16 7.16 0 01-7.29-7.34 7.23 7.23 0 017.34-7.45c.87 0 2.45.11 4.14 1.44v1.98h.1zM42.1 62.21v12.74h-1.58V62.21H37.1v-1.49h8.37v1.49zM48.2 67.83c0-4.24 3.26-7.39 7.34-7.39a7.28 7.28 0 017.34 7.4c0 4.24-3.26 7.39-7.34 7.39a7.25 7.25 0 01-7.35-7.4zm1.63 0c0 3.26 2.55 5.9 5.7 5.9 3.16 0 5.72-2.59 5.72-5.9 0-3.3-2.56-5.9-5.71-5.9a5.81 5.81 0 00-5.71 5.9zM70.06 60.72c.93 0 2.34.05 3.43.77A3.74 3.74 0 0175 64.63c0 2.21-1.41 3.81-3.53 3.92l4.46 6.4h-1.9l-4.3-6.23h-.39v6.23h-1.57V60.66h2.28v.06zm-.65 6.56h.98c1.96 0 3.1-.94 3.1-2.59 0-.77-.22-1.6-1.14-2.1-.66-.38-1.36-.38-2.02-.38h-.92v5.07zM82.08 60.72v14.29h-1.57V60.72h1.57zM95.57 70.92H89.6l-1.69 4.03h-1.74L92.64 60l6.3 14.95H97.2l-1.63-4.03zm-.6-1.49l-2.33-5.73-2.4 5.73h4.73z"/></g><g fill-rule="nonzero"><path d="M40.82 80.05h.38l-.05.45c.1-.2.27-.3.38-.4.22-.1.44-.15.66-.15.27 0 .54.05.7.2.11.1.28.25.33.45.06-.15.17-.3.44-.45.22-.15.44-.2.77-.2.54 0 .76.2.87.3.22.2.27.45.27.7 0 .05 0 .25-.05.6l-.28 2.15h-.32l.27-2.1.05-.5c0-.25-.1-.45-.21-.55-.17-.2-.44-.2-.6-.2-.22 0-.5.05-.72.25-.27.25-.38.65-.43 1.05l-.28 2.1h-.38l.28-2.1c0-.15.05-.4.05-.5 0-.2 0-.4-.22-.55a.92.92 0 00-.6-.2 1 1 0 00-.71.25c-.22.25-.38.6-.44 1.1l-.27 2.05h-.38l.49-3.75zM50.43 80.05h.39l-.5 3.65h-.38l.06-.55c-.17.2-.33.35-.6.45-.28.1-.55.2-.93.2-.44 0-.88-.1-1.26-.4-.22-.2-.6-.6-.6-1.3 0-.6.22-1.2.66-1.6.27-.25.76-.5 1.47-.5.33 0 .66.05.98.25.22.15.44.35.55.55l.16-.75zm-2.78.65c-.33.3-.55.8-.55 1.3 0 .45.22.85.44 1.1.33.3.7.35 1.04.35.38 0 .65-.1.93-.25.6-.4.7-1.05.7-1.45 0-.45-.16-.8-.43-1.05-.17-.15-.5-.35-1.1-.35-.32-.05-.7.1-1.03.35zM53.06 77.2l-.6 4.45 1.85-1.55h.49l-1.91 1.6 1.91 2.05h-.49l-1.69-1.8-.22.2-.22 1.6h-.38l.87-6.5h.39zM55.73 81.95c-.1.45.11.95.39 1.2.16.15.49.35.98.35.33 0 .65-.1.93-.25.22-.15.43-.35.49-.55l.33.2c-.17.25-.44.55-.71.7-.22.1-.55.25-1.04.25-.5 0-.98-.15-1.31-.5-.33-.35-.5-.75-.5-1.25 0-.7.28-1.2.66-1.55a2 2 0 011.42-.55c.55 0 .99.15 1.26.4.44.4.54.95.49 1.55h-3.39zm3-.35c0-.4-.16-.7-.37-.95-.17-.2-.5-.35-.93-.35-.6 0-.93.25-1.15.45-.22.2-.38.45-.44.85h2.9zM62.23 80.75c-.05-.1-.1-.2-.21-.3-.06 0-.17-.1-.44-.1s-.44.1-.55.2c-.1.1-.16.25-.16.4 0 .1.05.25.16.35.06.05.17.1.44.2l.33.1c.38.15.54.25.6.3.22.2.27.45.27.65 0 .45-.22.7-.33.85-.21.2-.54.4-1.09.4-.22 0-.6-.05-.93-.3a.96.96 0 01-.33-.65l.39-.1c0 .05.05.3.27.5.1.1.33.2.6.2.27 0 .55-.1.71-.25.17-.15.27-.4.27-.6 0-.15-.05-.3-.16-.45-.05-.05-.16-.15-.5-.25l-.21-.1c-.22-.1-.44-.2-.6-.35-.16-.15-.22-.3-.22-.55 0-.3.11-.5.27-.65.28-.25.55-.3.88-.3.22 0 .44.05.65.15.11.1.28.2.33.45l-.44.2zM66.93 83.75l-1.42-3.7h.44l1.26 3.25 1.85-3.25h.49l-3.38 5.7h-.44zM73.54 80.5c.28.25.5.65.5 1.25 0 .7-.28 1.2-.66 1.5-.33.3-.82.55-1.64.55-.55 0-1.04-.15-1.42-.5a1.7 1.7 0 01-.55-1.25c0-.55.28-1.15.66-1.5A2.63 2.63 0 0172 80c.55 0 1.2.15 1.53.5zm-.49 2.55c.27-.25.6-.65.6-1.25s-.33-.95-.44-1.05a1.61 1.61 0 00-1.2-.45c-.49 0-.93.15-1.2.4-.38.3-.6.8-.6 1.25 0 .45.16.8.44 1.1.22.2.54.4 1.14.4.55 0 .93-.1 1.26-.4zM75.84 80.05l-.28 2.2c-.05.4 0 .8.22 1 .17.15.44.2.71.2.33 0 .66-.1.82-.3.11-.1.28-.4.33-.9l.27-2.2h.39l-.33 2.3c-.06.4-.11.75-.38 1.05-.33.35-.82.4-1.15.4-.33 0-.71-.05-.99-.35-.38-.4-.32-.9-.32-1.2l.27-2.2h.44zM83.65 80.75c-.06-.1-.11-.2-.22-.3-.05 0-.16-.1-.44-.1-.27 0-.43.1-.54.2-.11.1-.17.25-.17.4 0 .1.06.25.17.35.05.05.16.1.43.2l.33.1c.38.15.55.25.6.3.22.2.28.45.28.65 0 .45-.22.7-.33.85-.22.2-.55.4-1.1.4-.21 0-.6-.05-.92-.3a.96.96 0 01-.33-.65l.38-.1c0 .05.06.3.27.5.11.1.33.2.6.2.28 0 .55-.1.72-.25.16-.15.27-.4.27-.6 0-.15-.06-.3-.16-.45a1.13 1.13 0 00-.5-.25l-.21-.1a2.3 2.3 0 01-.6-.35c-.17-.15-.22-.3-.22-.55 0-.3.1-.5.27-.65.27-.25.55-.3.87-.3.22 0 .44.05.66.15.1.1.27.2.33.45l-.44.2zM85.83 77.2h.39l-.5 3.45c.11-.2.28-.35.44-.45.22-.15.5-.2.82-.2.38 0 .66.1.88.3.38.35.32.85.32 1.15l-.32 2.3h-.39l.33-2.3c.06-.3.06-.65-.22-.9-.1-.1-.33-.2-.65-.2-.44 0-.66.15-.82.3-.17.15-.44.5-.5 1.2l-.27 1.9h-.38l.87-6.55zM89.88 80.05l-.5 3.65H89l.5-3.65h.38zm-.33-.95c-.06-.05-.06-.1-.06-.2 0-.15.06-.2.11-.3.11-.1.22-.1.28-.1.1 0 .16.05.22.1.05.05.1.15.1.2 0 .1-.05.2-.1.25a.44.44 0 01-.28.1c-.16.05-.22-.05-.27-.05zM91.3 80.05h.38l-.06.55a1.34 1.34 0 011.2-.65c.44 0 .77.15.88.3.16.15.33.35.33.7 0 .2-.06.55-.06.65l-.27 2.05h-.38l.27-2.15c.06-.25.06-.4.06-.5a.8.8 0 00-.22-.55c-.11-.1-.33-.2-.66-.2-.27 0-.6.05-.82.3-.27.25-.43.65-.49 1.2l-.27 1.9h-.38l.49-3.6zM95.5 81.95c-.1.45.11.95.39 1.2.16.15.49.35.98.35.33 0 .65-.1.93-.25.22-.15.44-.35.49-.55l.33.2c-.17.25-.44.55-.71.7-.22.1-.55.25-1.04.25-.5 0-.98-.15-1.31-.5-.33-.35-.5-.75-.5-1.25 0-.7.28-1.2.66-1.55a2 2 0 011.42-.55c.55 0 .99.15 1.26.4.44.4.55.95.5 1.55h-3.4zm3-.35c0-.4-.16-.7-.37-.95-.17-.2-.5-.35-.93-.35-.6 0-.93.25-1.15.45-.22.2-.38.45-.44.85h2.9z"/></g><path d="M75.42 2.78c.11.7.11.7-.54.82-2.81.38-4.82 1.9-6.39 4.23a31.66 31.66 0 00-2.87 5.75c-1.57 3.74-3.14 7.49-4.71 11.28-.06.11-.1.28-.16.5h.7c3.36-.06 6.66.2 9.91 1.08 2.71.7 5.2 1.79 7.31 3.74a9.9 9.9 0 013.3 7.1c.28 5.27-1.89 9.45-6 12.6-2.6 2-5.53 3.25-8.62 4.12-.16-.43-.16-.43.27-.54a25.5 25.5 0 007-3.2c2.8-1.85 5.03-4.24 6.17-7.5a12.5 12.5 0 00.37-7.7c-.86-3.03-2.92-5.1-5.68-6.56-2-1.09-4.17-1.68-6.4-2.12-2.65-.48-5.3-.6-8-.54-.44 0-.6.16-.71.54-3.69 8.9-7.37 17.85-11.05 26.75-.16.44-.38.6-.87.6-1.08-.06-.81.16-1.24-.87-3.14-8.4-6.23-16.87-9.37-25.28-.22-.6-.22-.6-.92-.6h-7.64c-1.2 0-2.44-.05-3.63-.1-3.63-.23-7.26-.6-10.61-2.18-2.98-1.36-5.42-3.36-6.88-6.4a11.98 11.98 0 012.16-13.4A14.8 14.8 0 0119 .29c6.28-1.09 11.54.97 16.14 5.2 2.06 1.96 3.52 4.35 4.87 6.79 1.74 3.14 2.87 6.5 4.01 9.82l1.3 3.8c.1.32.27.43.6.37 3.08-.16 6.23-.32 9.31-.54 1.2-.05 2.33-.16 3.52-.27.17 0 .44-.16.49-.27 1.62-4.07 3.47-8.08 4.77-12.26.38-1.25.65-2.55.6-3.9a8.03 8.03 0 00-.71-3c-.76-1.57-2.17-2.22-3.8-2.38-.21 0-.48-.05-.7-.05-.32 0-.32-.22-.38-.44 0-.32.17-.32.38-.32h15.87c0-.06.06-.06.16-.06zM37.4 26.44c-.05-.17-.05-.33-.1-.44l-5.37-14.48a31.26 31.26 0 00-3.25-6.62 9.72 9.72 0 00-4.06-3.64C22.78.4 20.78.45 18.82.83 11.3 2.4 8.38 9.29 9.14 15.04a10.64 10.64 0 003.63 6.57 18.14 18.14 0 008.67 4.12c2.6.54 5.25.6 7.9.65 2.5.06 5.04 0 7.53 0 .16.06.33.06.54.06zm14.14 17.25h.16c2.38-5.91 4.82-11.83 7.2-17.85l-13.26.81c1.95 5.76 3.9 11.4 5.9 17.04z" fill-rule="nonzero"/><path d="M6 81h32" stroke="#fff" stroke-width=".5"/></g></svg>